<?xml version="1.0" encoding="UTF-8"?>
<!-- Generated by Pixelmator Pro 3.8 -->
<svg width="1000" height="1000" viewBox="0 0 1000 1000" xmlns="http://www.w3.org/2000/svg">
    <path id="Heart" fill="#000000" fill-rule="evenodd" stroke="none" transform="translate(18 20) scale(0.965)" d="M 943.37262 553.972778 C 905.646301 624.083008 852.093384 692.333557 782.712952 758.724976 C 713.372253 825.121155 631.253052 888.566162 536.35614 949.060425 C 530.531799 952.775391 524.397949 955.982422 518.022888 958.64563 C 506.709137 964.451477 493.290863 964.451477 481.977112 958.64563 C 475.60202 955.982422 469.468231 952.775391 463.64386 949.060425 C 368.760223 888.560913 286.638123 825.115967 217.27948 758.724976 C 147.919891 692.333557 94.366028 624.083008 56.61602 553.972778 C 18.876423 483.865906 0 410.803589 0 339.228699 C 0 279.888855 12.426569 229.502808 37.267403 183.638123 C 60.58662 139.40033 95.322723 102.205139 137.872269 75.911865 C 180.277039 49.783081 229.261292 36.293762 279.069763 37.028748 C 328.391846 37.028748 373.178406 49.601013 410.42688 74.842529 C 447.86557 99.591187 478.629181 133.176392 500 172.631287 C 521.37085 133.176392 552.13446 99.591187 589.57312 74.842529 C 626.821594 49.601013 671.627991 37.028748 720.930237 37.028748 C 770.740601 36.290466 819.726746 49.780273 862.132446 75.911865 C 904.678223 102.201843 939.407715 139.398438 962.712708 183.638123 C 987.558289 229.502808 1000 279.888855 1000 339.228699 C 1000 410.803589 981.123596 483.865906 943.37262 553.972778 Z"/>
</svg>
